<?xml version="1.0" standalone="no"?>
<!DOCTYPE svg PUBLIC "-//W3C//DTD SVG 20010904//EN"
 "http://www.w3.org/TR/2001/REC-SVG-20010904/DTD/svg10.dtd">
<svg version="1.0" xmlns="http://www.w3.org/2000/svg"
 width="500.000000pt" height="266.000000pt" viewBox="0 0 500.000000 266.000000"
 preserveAspectRatio="xMidYMid meet">
<metadata>
Created by potrace 1.15, written by Peter Selinger 2001-2017
</metadata>
<g transform="translate(0.000000,266.000000) scale(0.100000,-0.100000)"
fill="#000000" stroke="none">
<path d="M2915 2560 c-88 -44 -164 -81 -169 -83 -5 -2 27 -79 72 -173 l81
-169 -33 -17 c-54 -28 -88 -75 -84 -117 2 -28 9 -38 29 -45 55 -19 139 51 139
115 0 14 -27 83 -61 153 -33 71 -59 132 -57 136 2 7 281 150 292 150 2 0 6 -6
9 -12 3 -7 26 -57 51 -111 l45 -97 -32 -14 c-91 -38 -122 -166 -40 -166 57 0
123 62 123 117 0 33 -179 413 -195 412 -5 0 -82 -36 -170 -79z"/>
<path d="M1350 2560 c-107 -24 -155 -31 -288 -45 -81 -9 -180 -15 -220 -14
-40 1 -75 0 -78 -3 -3 -4 -17 0 -32 8 -36 18 -59 17 -108 -5 -44 -20 -103 -83
-130 -139 -13 -27 -15 -50 -10 -100 9 -83 23 -116 77 -176 56 -61 104 -73 252
-65 15 1 27 7 27 14 0 14 22 25 50 25 11 0 40 7 65 16 73 24 156 35 172 23 9
-8 13 -39 13 -104 0 -51 5 -149 10 -220 12 -145 -1 -477 -25 -639 -17 -111
-55 -194 -119 -255 -34 -33 -37 -34 -75 -22 -45 13 -72 44 -117 131 -25 48
-28 66 -29 147 0 51 -1 93 -3 93 -1 0 -6 -10 -11 -22 -8 -22 -9 -21 -15 9 -5
21 -2 42 9 63 15 30 15 31 -2 22 -10 -5 -28 -8 -40 -6 -14 2 -23 -1 -23 -9 0
-8 -4 -7 -10 3 -8 12 -11 13 -19 1 -7 -11 -9 -11 -13 0 -7 20 -58 -97 -58
-132 0 -16 -4 -29 -9 -29 -12 0 -31 -88 -31 -142 0 -22 12 -73 26 -112 29 -81
8 -74 -24 8 -11 28 -26 50 -36 52 -20 3 -20 5 0 -42 25 -59 34 -104 20 -104
-9 0 -13 -46 -7 -98 2 -23 80 -99 149 -145 83 -56 174 -87 256 -89 211 -3 374
116 502 368 61 121 64 143 79 744 5 201 14 301 56 651 25 204 -31 322 -161
341 -19 3 -51 2 -70 -2z"/>
<path d="M4250 2549 c-108 -23 -373 -51 -462 -48 -37 1 -71 0 -74 -3 -3 -3
-19 1 -35 9 -37 18 -84 11 -130 -20 -50 -34 -107 -115 -115 -162 -8 -59 12
-153 43 -198 57 -81 112 -109 218 -108 78 1 95 4 95 16 0 14 22 25 50 25 11 0
40 7 65 16 73 24 156 35 172 23 9 -8 13 -38 13 -98 0 -47 5 -148 10 -223 12
-158 -1 -495 -26 -648 -17 -106 -56 -190 -118 -249 -34 -33 -37 -34 -75 -22
-45 13 -73 45 -117 131 -24 48 -28 67 -28 146 -1 51 -4 90 -8 87 -5 -2 -8 -14
-9 -26 -1 -15 -4 -12 -11 13 -7 26 -6 42 6 67 15 32 15 33 -1 25 -10 -5 -27
-8 -38 -6 -11 1 -23 -2 -27 -9 -6 -9 -8 -8 -8 2 0 10 -3 11 -14 2 -11 -9 -15
-9 -19 1 -6 17 -48 -77 -54 -124 -3 -21 -9 -38 -13 -38 -11 0 -30 -91 -30
-142 0 -22 11 -73 25 -112 26 -75 10 -67 -22 10 -10 24 -24 44 -30 44 -7 0
-13 5 -13 12 0 6 -3 9 -6 5 -4 -3 1 -25 11 -49 23 -56 35 -108 25 -108 -4 0
-10 -19 -13 -42 -7 -50 7 -79 60 -128 116 -108 231 -160 352 -162 207 -3 376
122 498 368 60 122 65 168 78 729 3 143 11 289 16 324 6 36 17 130 27 210 28
249 20 346 -34 411 -54 63 -113 76 -234 49z"/>
<path d="M2155 2291 c-139 -37 -233 -131 -286 -284 -45 -128 -37 -223 36 -454
l26 -82 -87 -83 c-116 -111 -177 -193 -215 -292 -78 -198 -36 -395 111 -529
120 -109 270 -154 466 -142 84 5 118 11 140 26 16 10 41 19 56 19 30 0 134 49
183 86 l30 22 65 -39 c61 -36 120 -63 120 -54 0 2 -16 12 -35 21 -20 9 -33 19
-31 22 3 3 12 -1 20 -7 8 -7 23 -10 33 -7 10 3 25 1 33 -4 11 -7 11 -10 2 -10
-28 0 1 -19 52 -34 64 -19 69 -19 61 -6 -3 6 -14 10 -23 10 -9 1 -30 8 -47 16
-16 8 -22 12 -12 9 59 -16 64 -13 12 8 -33 13 -78 33 -100 44 -32 18 -35 21
-15 19 14 -1 40 -10 58 -20 19 -10 36 -15 39 -12 3 3 -5 10 -18 15 -36 15
-145 104 -132 108 7 3 42 -14 79 -36 63 -38 84 -47 84 -37 0 3 -18 15 -40 27
-22 13 -40 26 -40 31 0 11 7 10 39 -6 16 -9 33 -11 41 -6 9 6 2 14 -26 28 -21
12 -52 32 -68 45 l-29 24 46 64 c25 36 51 77 56 92 6 15 15 27 21 27 7 0 9 8
5 19 -3 12 0 23 8 28 32 20 47 58 47 124 0 75 -13 120 -47 166 -56 73 -175 69
-261 -10 -31 -28 -74 -107 -74 -135 0 -12 -4 -25 -9 -28 -5 -2 -6 -17 -4 -32
3 -16 -1 -35 -10 -47 -13 -17 -17 -17 -28 -5 -25 27 -133 204 -182 296 l-48
91 119 119 c171 170 215 251 217 399 1 62 -3 80 -36 148 -44 95 -128 186 -203
223 -57 28 -147 39 -199 25z m95 -264 c26 -20 67 -80 79 -116 9 -27 8 -40 -6
-68 -20 -42 -162 -195 -176 -190 -18 6 -47 128 -47 195 0 73 22 125 70 166 34
28 57 32 80 13z m-144 -895 c42 -75 117 -182 181 -258 24 -28 43 -55 43 -61 0
-10 -63 -43 -82 -43 -6 0 -16 -7 -23 -17 -19 -25 -157 -30 -224 -8 -91 30
-146 132 -121 226 18 68 157 248 180 234 5 -3 25 -36 46 -73z"/>
<path d="M3211 1825 c-57 -19 -109 -36 -116 -39 -10 -3 3 -56 50 -205 l63
-201 -40 -11 c-55 -14 -107 -65 -114 -111 -6 -31 -3 -38 20 -53 19 -12 36 -15
62 -11 42 8 109 66 118 102 5 17 -13 88 -54 219 -33 106 -60 197 -60 202 0 5
47 24 105 42 105 32 110 36 99 79 -8 27 -6 27 -133 -13z"/>
<path d="M300 210 l0 -150 628 0 c439 0 631 -3 639 -11 8 -8 13 -8 17 0 4 6
40 11 87 11 l79 0 0 150 0 150 -725 0 -725 0 0 -150z"/>
<path d="M1780 210 l0 -150 720 0 720 0 0 150 0 150 -720 0 -720 0 0 -150z"/>
<path d="M3260 210 l0 -150 623 0 c435 0 626 -3 634 -11 8 -8 13 -8 17 0 4 6
40 11 87 11 l79 0 0 150 0 150 -720 0 -720 0 0 -150z"/>
</g>
</svg>
